<svg width="60" height="61" viewBox="0 0 60 61" fill="none" xmlns="http://www.w3.org/2000/svg">
<g clip-path="url(#clip0_604_2518)">
<g clip-path="url(#clip1_604_2518)">
<path d="M8.49745 14.627C8.76599 14.9339 8.68927 15.4327 8.38236 15.6628C8.07546 15.9314 7.57674 15.8547 7.34656 15.5477L4.50768 11.9416C3.62533 10.8674 3.31842 9.48636 3.47188 8.22038C3.62533 6.91603 4.2775 5.68841 5.35167 4.84442L9.64835 1.4301C10.7225 0.547744 12.1036 0.240839 13.3696 0.394292C14.6739 0.547744 15.9015 1.19992 16.7455 2.27409L19.6228 5.91859C19.8913 6.22549 19.8146 6.72422 19.5077 6.95439C19.2008 7.22294 18.7021 7.14621 18.4719 6.8393L15.5946 3.1948C14.9808 2.42754 14.0985 1.96718 13.2161 1.85209C12.2954 1.737 11.3363 1.96718 10.5691 2.58099L6.27239 5.99532C5.50512 6.60913 5.04477 7.49148 4.92968 8.37383C4.81459 9.29455 5.04477 10.2536 5.65858 11.0209L8.49745 14.627ZM52.9604 15.893C52.6918 16.1999 52.2315 16.2766 51.9246 16.0081C51.6177 15.7396 51.5409 15.2792 51.8095 14.9723L54.9169 11.0209C55.5307 10.2536 55.7609 9.29455 55.6458 8.37383C55.5307 7.45312 55.0703 6.60913 54.3031 5.99532L50.0064 2.58099C49.2391 1.96718 48.2801 1.737 47.3593 1.85209C46.4386 1.96718 45.5946 2.42754 44.9808 3.1948L41.9501 7.03112C41.6816 7.33803 41.2212 7.41475 40.9143 7.14621C40.6074 6.87767 40.5307 6.41731 40.7992 6.1104L43.8299 2.27409C44.7123 1.19992 45.9399 0.547744 47.2059 0.394292C48.4719 0.240839 49.8529 0.586108 50.9271 1.4301L55.2238 4.84442C56.298 5.72677 56.9501 6.95439 57.1036 8.22038C57.257 9.48636 56.9118 10.8674 56.0678 11.9416L52.9604 15.893Z" fill="#343438"/>
<path d="M29.9808 3.38672C37.8453 3.38672 44.9808 6.57086 50.1215 11.7115C55.2622 16.8522 58.4463 23.9877 58.4463 31.8522C58.4463 39.7166 55.2622 46.8522 50.1215 51.9929C44.9808 57.1335 37.8453 60.3177 29.9808 60.3177C22.1164 60.3177 14.9808 57.1335 9.84018 51.9929C4.69951 46.8522 1.51537 39.7166 1.51537 31.8522C1.51537 23.9877 4.69951 16.8522 9.84018 11.7115C14.9808 6.57086 22.1164 3.38672 29.9808 3.38672ZM49.0857 12.7857C44.2136 7.91357 37.4617 4.88288 29.9808 4.88288C22.5384 4.88288 15.7865 7.91357 10.876 12.7857C6.00386 17.6578 2.97317 24.4097 2.97317 31.8906C2.97317 39.333 6.00386 46.0849 10.876 50.9954C15.7481 55.8675 22.5 58.8982 29.9808 58.8982C37.4233 58.8982 44.1752 55.8675 49.0857 50.9954C53.9578 46.1233 56.9885 39.3714 56.9885 31.8906C56.9885 24.4481 53.9578 17.6962 49.0857 12.7857Z" fill="#343438"/>
<path d="M29.9808 9.56348C36.1189 9.56348 41.7199 12.0571 45.7481 16.0852C49.7762 20.1133 52.2698 25.676 52.2698 31.8525C52.2698 37.9906 49.7762 43.5916 45.7481 47.6197C41.7199 51.6479 36.1573 54.1415 29.9808 54.1415C23.8427 54.1415 18.2417 51.6479 14.2135 47.6197C10.1854 43.5916 7.6918 38.0289 7.6918 31.8525C7.6918 25.7144 10.1854 20.1133 14.2135 16.0852C18.2417 12.0571 23.8043 9.56348 29.9808 9.56348ZM44.6739 17.1594C40.9143 13.3998 35.6969 11.0596 29.9808 11.0596C24.2263 11.0596 19.0473 13.3998 15.2877 17.1594C11.5281 20.919 9.18797 26.1364 9.18797 31.8525C9.18797 37.607 11.5281 42.786 15.2877 46.5456C19.0473 50.3052 24.2647 52.6453 29.9808 52.6453C35.7353 52.6453 40.9143 50.3052 44.6739 46.5456C48.4335 42.786 50.7736 37.5686 50.7736 31.8525C50.7736 26.098 48.4335 20.919 44.6739 17.1594Z" fill="#343438"/>
<path d="M19.968 23.9116C19.6995 23.6047 19.6995 23.1444 19.968 22.8758C20.2749 22.6073 20.7353 22.6073 21.0038 22.8758L28.5998 30.6252C28.8683 30.9321 28.8683 31.3924 28.5998 31.661C28.2928 31.9295 27.8325 31.9295 27.5639 31.661L19.968 23.9116ZM32.7046 31.661C32.3977 31.9679 31.9373 31.9679 31.6688 31.661C31.3619 31.3541 31.3619 30.8937 31.6688 30.6252L42.679 19.6149C42.9859 19.308 43.4463 19.308 43.7148 19.6149C44.0217 19.9219 44.0217 20.3822 43.7148 20.6508L32.7046 31.661Z" fill="#343438"/>
<path d="M30.1343 29.5127C31.1317 29.5127 32.0524 29.9347 32.7046 30.5869C33.3568 31.2391 33.7788 32.1598 33.7788 33.1572C33.7788 34.1547 33.3568 35.0754 32.7046 35.7276C32.0524 36.3798 31.1317 36.7634 30.1343 36.7634C29.1368 36.7634 28.2161 36.3414 27.5639 35.6892L27.5256 35.6509C26.8734 34.9987 26.4898 34.1163 26.4898 33.1189C26.4898 32.1214 26.9118 31.2007 27.5639 30.5486C28.2161 29.8964 29.1368 29.4744 30.1343 29.4744V29.5127ZM31.6688 31.6227C31.2852 31.2391 30.7481 31.0089 30.1343 31.0089C29.5204 31.0089 28.9834 31.2391 28.5997 31.6227C28.2161 32.0064 27.9859 32.5434 27.9859 33.1572C27.9859 33.7327 28.2161 34.2698 28.5997 34.6534L28.6381 34.6918C29.0217 35.0754 29.5588 35.3056 30.1726 35.3056C30.7481 35.3056 31.2852 35.0754 31.6688 34.6918C32.0524 34.3081 32.2826 33.7711 32.2826 33.1572C32.2826 32.5434 32.0524 32.0064 31.6688 31.6227ZM16.0166 23.1061C15.8248 23.4514 15.3644 23.5665 15.0192 23.3746C14.6739 23.1828 14.5588 22.7225 14.7506 22.3772C14.9424 22.0319 15.1726 21.6483 15.4412 21.303C17.8964 17.6585 21.656 15.2416 25.6841 14.2442C29.7123 13.2468 34.0089 13.6688 37.6151 15.702C37.922 15.8555 38.2289 16.0856 38.5358 16.2775C38.8811 16.5076 38.9578 16.968 38.7276 17.3133C38.4974 17.6585 38.0371 17.7353 37.6918 17.5051C37.4233 17.3133 37.1547 17.1598 36.8478 16.968C33.6253 15.1266 29.6739 14.7429 26.0294 15.6636C22.3465 16.5844 18.9322 18.8094 16.6688 22.147C16.477 22.4539 16.2468 22.7992 16.055 23.1445L16.0166 23.1061Z" fill="#343438"/>
</g>
</g>
<defs>
<clipPath id="clip0_604_2518">
<rect width="60" height="60" fill="white" transform="translate(0 0.356445)"/>
</clipPath>
<clipPath id="clip1_604_2518">
<rect width="60" height="60" fill="white" transform="translate(0 0.356445)"/>
</clipPath>
</defs>
</svg>
