<svg width="60" height="61" viewBox="0 0 60 61" fill="none" xmlns="http://www.w3.org/2000/svg">
<g clip-path="url(#clip0_604_2482)">
<g clip-path="url(#clip1_604_2482)">
<path d="M58.0451 55.7857C58.4512 55.7857 58.7876 56.1221 58.7876 56.5281C58.7876 56.9342 58.4512 57.2706 58.0451 57.2706H5.04049C4.63446 57.2706 4.29803 56.9342 4.29803 56.5281V56.5049V1.0989C4.29803 0.692872 4.63446 0.356445 5.04049 0.356445C5.44653 0.356445 5.78295 0.692872 5.78295 1.0989V55.7857H58.0451Z" fill="#343438"/>
<path d="M2.48825 4.74163C2.19823 5.03166 1.73419 5.03166 1.44417 4.75323C1.15414 4.46321 1.15414 3.99917 1.43257 3.70915L4.51841 0.5769C4.80844 0.286877 5.27247 0.286877 5.5625 0.565299L5.5741 0.5769L5.5857 0.588501L8.65994 3.70915C8.94997 3.99917 8.93837 4.47481 8.64834 4.75323C8.35832 5.04326 7.88268 5.03166 7.60426 4.74163L5.05206 2.15463L2.49985 4.74163H2.48825ZM54.3908 53.976C54.1008 53.686 54.1008 53.2219 54.3792 52.9319C54.6692 52.6419 55.1333 52.6419 55.4233 52.9203L58.5439 56.0061C58.834 56.2962 58.834 56.7602 58.5555 57.0502L58.5439 57.0618L58.5323 57.0734L55.4117 60.1477C55.1217 60.4377 54.646 60.4261 54.3676 60.1361C54.0776 59.846 54.0892 59.3704 54.3792 59.092L56.9662 56.5398L54.3792 53.9876L54.3908 53.976Z" fill="#343438"/>
<path d="M10.1332 37.2939C9.87803 37.6071 9.40239 37.6535 9.08917 37.3983C8.77594 37.1431 8.72954 36.6675 8.98476 36.3542L15.5161 28.396C15.7481 28.1176 16.1425 28.048 16.4442 28.222L21.2469 30.8554L28.0567 21.4586C28.3003 21.1222 28.7643 21.0526 29.0892 21.2962L34.7272 24.7185L47.6274 5.86699C47.8595 5.53056 48.3235 5.43775 48.6599 5.66977C48.9964 5.90179 49.0892 6.36583 48.8571 6.70225L35.5625 26.1222C35.3421 26.447 34.9012 26.5398 34.5648 26.3426L28.8571 22.8739L22.0706 32.2475C21.8502 32.5491 21.4442 32.6419 21.1077 32.4679L16.2701 29.8113L10.1216 37.2939H10.1332Z" fill="#343438"/>
<path d="M43.1612 9.20797C42.7783 9.35878 42.3491 9.18477 42.1983 8.80194C42.0475 8.41911 42.2215 7.98987 42.6043 7.83906L47.9987 5.61168C48.3816 5.46087 48.8108 5.63488 48.9616 6.01771C48.9964 6.09892 49.008 6.18013 49.0196 6.26133L49.3329 11.911C49.3561 12.317 49.0428 12.665 48.6368 12.6882C48.2308 12.7115 47.8827 12.3982 47.8595 11.9922L47.6043 7.38662L43.1844 9.21957L43.1612 9.20797Z" fill="#343438"/>
<path d="M17.7667 42.5955H17.7899H24.6576C25.0636 42.5955 25.4001 42.9319 25.4001 43.338V43.3612V56.5398C25.4001 56.9459 25.0636 57.2823 24.6576 57.2823H24.6344H17.7667C17.3606 57.2823 17.0242 56.9459 17.0242 56.5398V56.5166V43.338C17.0242 42.9319 17.3606 42.5955 17.7667 42.5955ZM23.9036 44.0804H18.5091V55.7858H23.9036V44.0804ZM29.9128 33.2104H29.936H36.8038C37.2098 33.2104 37.5462 33.5468 37.5462 33.9528V33.976V56.5282C37.5462 56.9343 37.2098 57.2707 36.8038 57.2707H36.7806H29.9128C29.5068 57.2707 29.1704 56.9343 29.1704 56.5282V56.505V33.9528C29.1704 33.5468 29.5068 33.2104 29.9128 33.2104ZM36.0497 34.6953H30.6553V55.7742H36.0497V34.6953ZM42.0242 25.7974H42.0474H48.9152C49.3212 25.7974 49.6576 26.1338 49.6576 26.5398V26.563V56.5282C49.6576 56.9343 49.3212 57.2707 48.9152 57.2707H48.892H42.0242C41.6182 57.2707 41.2817 56.9343 41.2817 56.5282V56.505V26.5398C41.2817 26.1338 41.6182 25.7974 42.0242 25.7974ZM48.1611 27.2823H42.7667V55.7858H48.1611V27.2823Z" fill="#343438"/>
</g>
</g>
<defs>
<clipPath id="clip0_604_2482">
<rect width="60" height="60" fill="white" transform="translate(0 0.356445)"/>
</clipPath>
<clipPath id="clip1_604_2482">
<rect width="60" height="60" fill="white" transform="translate(-0.000207901 0.356445)"/>
</clipPath>
</defs>
</svg>
