<svg width="70" height="70" viewBox="0 0 70 70" fill="none" xmlns="http://www.w3.org/2000/svg">
<rect x="-0.5" y="0.5" width="69" height="69" rx="34.5" transform="matrix(-1 0 0 1 69 0)" stroke="#858591"/>
<path d="M27.6464 35.3536C27.4512 35.1583 27.4512 34.8417 27.6464 34.6464L30.8284 31.4645C31.0237 31.2692 31.3403 31.2692 31.5355 31.4645C31.7308 31.6597 31.7308 31.9763 31.5355 32.1716L28.7071 35L31.5355 37.8284C31.7308 38.0237 31.7308 38.3403 31.5355 38.5355C31.3403 38.7308 31.0237 38.7308 30.8284 38.5355L27.6464 35.3536ZM42 35V35.5H28V35V34.5H42V35Z" fill="#858591"/>
</svg>
