<svg width="60" height="61" viewBox="0 0 60 61" fill="none" xmlns="http://www.w3.org/2000/svg">
<g clip-path="url(#clip0_604_2495)">
<g clip-path="url(#clip1_604_2495)">
<path d="M30.0117 0.356445C30.4163 0.356445 30.7495 0.689646 30.7495 1.11805C30.7495 1.52265 30.4163 1.85585 29.9879 1.85585H29.7023C27.2509 1.85585 24.8233 2.71265 22.9907 4.33106C21.1819 5.94946 19.9442 8.37707 19.8728 11.5425V11.8519C19.8728 14.4223 20.1109 16.3977 20.7297 18.3255C21.3485 20.2771 22.3719 22.2287 23.9189 24.7277C23.9665 24.7991 23.9903 24.8943 24.0141 24.9657C24.2045 25.6321 25.7515 31.6298 21.4913 33.3672C20.7297 33.6766 19.7776 34.0098 18.7304 34.3668C14.2322 35.89 7.47301 38.1748 6.94941 42.3636V42.3874C6.2592 48.028 6.2592 54.9062 6.2592 54.9062C6.2592 55.3108 5.926 55.644 5.5214 55.644C5.1168 55.644 4.7836 55.3108 4.7836 54.9062C4.7836 54.8824 4.7836 47.9328 5.4738 42.197V42.1732C6.0926 37.08 13.3992 34.6048 18.2544 32.9388C19.3254 32.5818 20.2537 32.2724 20.9439 31.9868C23.9665 30.7491 22.8241 26.1081 22.6337 25.4179C21.0391 22.8713 19.9918 20.8483 19.3492 18.7777C18.6828 16.6595 18.421 14.5413 18.421 11.8519V11.5187C18.5162 7.92487 19.9204 5.14026 22.0387 3.23626C24.1331 1.35605 26.9177 0.380245 29.7261 0.380245H30.0117V0.356445Z" fill="#343438"/>
<path d="M22.586 25.3702C22.348 25.037 22.4194 24.5848 22.7288 24.323C23.062 24.085 23.5142 24.1564 23.776 24.4658C24.5376 25.4892 25.323 26.2984 26.156 26.9172C27.3936 27.8454 28.7026 28.2976 29.9878 28.2976C31.273 28.2976 32.5821 27.8454 33.8197 26.9172C34.6527 26.2984 35.4381 25.4892 36.1997 24.4658C36.4377 24.1326 36.9137 24.0612 37.2469 24.323C37.5801 24.561 37.6515 25.037 37.3897 25.3702C36.5567 26.5126 35.6523 27.417 34.7003 28.131C33.2009 29.2496 31.5824 29.8208 29.9878 29.8208C28.3694 29.8208 26.7748 29.2496 25.2754 28.131C24.3472 27.4408 23.4428 26.5126 22.586 25.3702Z" fill="#343438"/>
<path fill-rule="evenodd" clip-rule="evenodd" d="M27.3223 42.1489L29.6547 47.9799L32.2013 42.1965L31.1065 34.1045H28.5361L27.3223 42.1489Z" fill="#343438"/>
<path d="M30.0116 1.85585C29.607 1.85585 29.2738 1.52265 29.25 1.11805C29.25 0.713446 29.5832 0.380245 29.9878 0.356445H30.2734C33.0818 0.356445 35.8665 1.33225 37.9609 3.21245C40.0791 5.09266 41.4833 7.87727 41.5785 11.4949V11.8281C41.5785 14.5413 41.3167 16.6357 40.6503 18.7539C39.9839 20.8245 38.9367 22.8475 37.3659 25.3941C37.1755 26.1081 36.0331 30.7253 39.0557 31.9629C39.7221 32.2485 40.6741 32.5579 41.7451 32.915C46.6003 34.5572 53.9069 37.0324 54.5257 42.1494V42.1732C55.2159 47.909 55.2159 54.8586 55.2159 54.8824C55.2159 55.287 54.8827 55.6202 54.4781 55.6202C54.0735 55.6202 53.7403 55.287 53.7403 54.8824C53.7403 54.8586 53.7403 48.0042 53.0501 42.3636V42.3398C52.5503 38.151 45.7673 35.8662 41.2691 34.343C40.1981 33.986 39.2699 33.6528 38.5083 33.3434C34.2481 31.6059 35.7951 25.6083 35.9855 24.9419C36.0093 24.8705 36.0331 24.7753 36.0807 24.7039C37.6277 22.2049 38.6511 20.2533 39.2699 18.3017C39.8887 16.3739 40.1267 14.3747 40.1267 11.8281V11.5187C40.0553 8.35327 38.8177 5.94946 37.0089 4.30726C35.1763 2.68885 32.7724 1.83205 30.2972 1.83205H30.0116V1.85585ZM34.9621 51.6932C34.5575 51.6932 34.2243 51.36 34.2243 50.9554C34.2243 50.5508 34.5575 50.2176 34.9621 50.2176H41.2929C41.6975 50.2176 42.0307 50.5508 42.0307 50.9554C42.0307 51.36 41.6975 51.6932 41.2929 51.6932H34.9621Z" fill="#343438"/>
<path d="M22.2767 31.5343C22.1339 31.1535 22.3005 30.7013 22.6813 30.5585C23.0621 30.3919 23.4905 30.5823 23.6571 30.9869L26.0371 36.9131L29.7023 46.0761L36.3663 30.9155C36.5329 30.5347 36.9613 30.3681 37.3421 30.5347C37.7229 30.7013 37.8895 31.1535 37.7229 31.5343L30.3687 48.2657C30.2973 48.4561 30.1545 48.5989 29.9641 48.6941C29.5833 48.8607 29.1549 48.6703 28.9883 48.2657L24.6567 37.4605L22.2767 31.5343Z" fill="#343438"/>
<path d="M30.3924 59.5944C30.3924 59.999 30.0592 60.3322 29.6546 60.3322C29.25 60.3322 28.9168 59.999 28.9168 59.5944V47.98C28.9168 47.5754 29.25 47.2422 29.6546 47.2422C30.0592 47.2422 30.3924 47.5754 30.3924 47.98V59.5944ZM46.8383 58.2854C46.8383 58.69 46.5051 59.0232 46.1005 59.0232C45.6959 59.0232 45.3627 58.69 45.3627 58.2854V51.4786C45.3627 51.074 45.6959 50.7408 46.1005 50.7408C46.5051 50.7408 46.8383 51.074 46.8383 51.4786V58.2854ZM13.9942 58.2854C13.9942 58.69 13.661 59.0232 13.2563 59.0232C12.8517 59.0232 12.5185 58.69 12.5185 58.2854V51.4786C12.5185 51.074 12.8517 50.7408 13.2563 50.7408C13.661 50.7408 13.9942 51.074 13.9942 51.4786V58.2854Z" fill="#343438"/>
</g>
</g>
<defs>
<clipPath id="clip0_604_2495">
<rect width="60" height="60" fill="white" transform="translate(0 0.356445)"/>
</clipPath>
<clipPath id="clip1_604_2495">
<rect width="60" height="60" fill="white" transform="translate(-0.00023365 0.356445)"/>
</clipPath>
</defs>
</svg>
