<svg width="60" height="61" viewBox="0 0 60 61" fill="none" xmlns="http://www.w3.org/2000/svg">
<g clip-path="url(#clip0_604_2509)">
<g clip-path="url(#clip1_604_2509)">
<path d="M21.603 42.2766C20.7191 42.2766 19.9155 41.9284 19.3262 41.3391L19.2994 41.3124C18.7369 40.7499 18.3887 39.9463 18.3887 39.0891C18.3887 38.2052 18.7369 37.4016 19.3262 36.8124C19.9155 36.2231 20.7191 35.8749 21.603 35.8749C22.4869 35.8749 23.2905 36.2231 23.8798 36.8124C24.4691 37.4016 24.8173 38.2052 24.8173 39.0891C24.8173 39.9731 24.4691 40.7766 23.8798 41.3659C23.2905 41.9284 22.5137 42.3034 21.6298 42.3034L21.603 42.2766ZM18.2816 42.3838C19.1387 43.2409 20.3173 43.7499 21.603 43.7499C22.8887 43.7499 24.0673 43.2409 24.8976 42.3838L24.9244 42.357C25.7816 41.4999 26.2905 40.3213 26.2905 39.0356C26.2905 37.7499 25.7548 36.5713 24.9244 35.7141C24.0673 34.857 22.8887 34.3481 21.603 34.3481C20.3173 34.3481 19.1387 34.8838 18.2816 35.7141C17.4244 36.5713 16.9155 37.7499 16.9155 39.0356C16.9155 40.3213 17.4244 41.4731 18.2548 42.3034L18.2816 42.3302V42.3838ZM23.6923 55.1338L23.2637 58.857H21.603H19.9423L19.5137 55.107C19.4869 54.7856 19.2191 54.5177 18.8976 54.4641C17.9601 54.3034 17.0494 54.0624 16.1923 53.7409C15.3084 53.4195 14.4512 52.9909 13.6476 52.5356C13.353 52.3481 12.978 52.4284 12.7369 52.6427L9.978 55.2677L8.69229 54.1963L7.40657 53.1249L9.54943 49.8838C9.73693 49.6159 9.71014 49.2409 9.49586 48.9999C8.90657 48.2766 8.39764 47.5266 7.94229 46.7231C7.51371 45.9195 7.11193 45.0891 6.81729 44.2052C6.71014 43.857 6.36193 43.6695 6.01371 43.6963L2.07621 43.9374L1.78157 42.3034L1.48693 40.6695L5.39764 39.5177C5.71907 39.4106 5.93336 39.1159 5.93336 38.7945C5.96014 37.9106 6.0405 37.0266 6.20121 36.1695C6.36193 35.2856 6.62979 34.4284 6.92443 33.5981C7.05836 33.2766 6.92443 32.9016 6.65657 32.7141L3.30836 30.2499L4.13871 28.8034L4.96907 27.357L8.90657 29.0713C9.228 29.2052 9.57621 29.0981 9.7905 28.857C10.353 28.2141 10.9691 27.6249 11.6387 27.0624C12.3084 26.5266 13.0316 26.0177 13.7816 25.5891C14.0762 25.4284 14.2101 25.0802 14.1298 24.7588L13.1119 20.5266L14.6923 19.9641L16.2726 19.4016L18.228 23.3391C18.3887 23.6606 18.7369 23.8213 19.0584 23.7409C19.4601 23.6874 19.8619 23.6338 20.2905 23.607C20.7191 23.5802 21.1476 23.5534 21.5762 23.5534C22.0048 23.5534 22.4334 23.5802 22.8619 23.607C23.2905 23.6338 23.7191 23.6874 24.1476 23.7677C24.4691 23.8213 24.7905 23.6606 24.9244 23.3659L26.8798 19.4284L28.4601 19.9909L30.0405 20.5534L29.0226 24.7856C28.9423 25.107 29.103 25.4552 29.3709 25.6159C30.1209 26.0445 30.8173 26.5534 31.4869 27.0891C32.1566 27.6516 32.7726 28.2409 33.3619 28.9106C33.5762 29.1516 33.9244 29.232 34.2191 29.0981L38.1566 27.3838L38.9869 28.8302L39.8173 30.2766L36.4423 32.7677C36.1744 32.982 36.0673 33.3302 36.2012 33.6249C36.5226 34.4552 36.7637 35.3124 36.9244 36.1963C37.0851 37.0534 37.1923 37.9641 37.1923 38.8481C37.1923 39.1695 37.4334 39.4641 37.728 39.5445L41.6387 40.6963L41.3441 42.357L41.0494 43.9909L37.0584 43.7499C36.7101 43.7231 36.4155 43.9374 36.3084 44.2588C36.0137 45.1427 35.6387 45.9731 35.1834 46.7766L35.1566 46.8034C34.7012 47.607 34.1923 48.357 33.6298 49.0534C33.4155 49.3213 33.4155 49.6695 33.5762 49.9374L35.7191 53.1784L34.4334 54.2499L33.1476 55.3213L30.3619 52.6963C30.1209 52.4552 29.7459 52.4284 29.478 52.5891C28.6744 53.0713 27.8173 53.4731 26.9334 53.7945L26.9066 53.8213C26.0494 54.1427 25.1387 54.3838 24.228 54.5445C23.8798 54.5981 23.6387 54.8927 23.6119 55.2141L23.6923 55.1338ZM24.7369 59.1784L25.1119 55.8302C25.9423 55.6695 26.7459 55.4284 27.4959 55.1338H27.5226C28.3262 54.8391 29.0762 54.4909 29.8262 54.0891L32.2905 56.4195L32.3173 56.4463C32.5584 56.6606 32.8262 56.7945 33.1476 56.8213C33.4691 56.8481 33.7905 56.7677 34.0584 56.5266L35.5048 55.3213L36.9512 54.1159C37.2191 53.9016 37.353 53.5802 37.3798 53.2856C37.4066 53.0177 37.3262 52.7231 37.1923 52.4552L37.1655 52.4016L35.2369 49.482C35.7191 48.8391 36.1744 48.1695 36.5762 47.4463L36.603 47.3927C37.0048 46.6695 37.353 45.9463 37.6476 45.1695L41.2101 45.3838C41.5316 45.4106 41.8262 45.3302 42.0673 45.1427C42.3084 44.982 42.4691 44.7409 42.5494 44.4463C42.5494 44.4195 42.5762 44.3927 42.5762 44.3659L42.8976 42.5177L43.2191 40.6695C43.2726 40.3213 43.1923 39.9999 43.0048 39.7588C42.8441 39.5177 42.5762 39.3302 42.2816 39.2231L38.7459 38.1784C38.6923 37.3749 38.6119 36.5713 38.4512 35.8213C38.2905 35.0445 38.103 34.2677 37.8351 33.5445L40.8619 31.2945C41.103 31.107 41.2905 30.8391 41.3709 30.5445C41.4512 30.2766 41.4244 29.9552 41.2905 29.6874L41.2637 29.607L40.3262 27.9999L39.3887 26.3927C39.2012 26.0981 38.9334 25.9106 38.6387 25.8034C38.3709 25.7231 38.0494 25.7499 37.7816 25.857L37.728 25.8838L34.1655 27.4374C33.6566 26.8749 33.0941 26.3391 32.5048 25.857C31.9155 25.3749 31.2994 24.9195 30.6566 24.5177L31.5673 20.6874C31.6476 20.3927 31.6209 20.0981 31.5137 19.857L31.4869 19.8034C31.353 19.5088 31.1119 19.2945 30.7905 19.1606L29.0226 18.5177L27.2548 17.8749C26.9601 17.7677 26.6387 17.7945 26.3709 17.9016L26.3173 17.9284C26.0762 18.0356 25.8619 18.2499 25.7012 18.4909L25.6476 18.5713L23.8798 22.1338C23.5851 22.107 23.3173 22.0534 23.0226 22.0534C22.5673 22.0266 22.0851 21.9999 21.6298 21.9999C21.1744 21.9999 20.6923 22.0266 20.2369 22.0534C19.9691 22.0802 19.6744 22.107 19.3798 22.1338L17.6119 18.5713C17.478 18.3034 17.2905 18.0891 17.0494 17.982C17.0226 17.9552 16.9959 17.9552 16.9691 17.9552C16.6744 17.8213 16.353 17.7945 16.0316 17.9016L14.2637 18.5445L12.4959 19.1874C12.2012 19.2945 11.9601 19.5088 11.8262 19.7499L11.7994 19.8302C11.6655 20.0981 11.6387 20.4195 11.7191 20.7141L12.6298 24.5445C11.9869 24.9463 11.3709 25.4016 10.7816 25.8838C10.1923 26.3659 9.62979 26.9016 9.09407 27.4641L5.53157 25.9106C5.26371 25.8034 4.96907 25.7766 4.70121 25.8302L4.64764 25.857C4.353 25.9374 4.08514 26.1249 3.89764 26.4195L2.96014 28.0534L2.04943 29.6338L2.02264 29.6606C1.83514 29.9552 1.80836 30.3034 1.88871 30.5981C1.96907 30.8927 2.15657 31.1606 2.39764 31.3481L5.42443 33.5981C5.18336 34.3481 4.96907 35.0981 4.80836 35.8749C4.64764 36.6516 4.56729 37.4284 4.51371 38.232L1.00479 39.2766H0.978C0.683358 39.357 0.4155 39.5445 0.254786 39.7856C0.0672862 40.0534 -0.0130709 40.3749 0.0405005 40.6963L0.361929 42.5445L0.683358 44.3927C0.736929 44.7409 0.924429 45.0088 1.19229 45.1963C1.43336 45.357 1.75479 45.4641 2.04943 45.4374L5.61193 45.2231C5.90657 45.9999 6.25479 46.7231 6.65657 47.4463C7.05836 48.1695 7.51371 48.8659 8.02264 49.5088L6.12086 52.3749L6.09407 52.4016C5.90657 52.6695 5.82621 52.9641 5.853 53.2856C5.87979 53.607 6.01371 53.9016 6.28157 54.1159L7.728 55.3213L9.17443 56.5266C9.44229 56.7409 9.76371 56.8481 10.0851 56.8213C10.3798 56.7945 10.6744 56.6606 10.9155 56.4463L13.3798 54.0891C14.1298 54.4909 14.8798 54.8391 15.6834 55.1338C16.4601 55.4284 17.2905 55.6695 18.1209 55.8302L18.4959 59.1784C18.5226 59.4731 18.6566 59.7677 18.8709 59.982V60.0088C19.0851 60.2231 19.4066 60.3838 19.728 60.3838H21.603H23.478C23.8262 60.3838 24.1209 60.2499 24.3351 60.0356L24.3619 60.0088C24.5762 59.7945 24.7101 59.5266 24.7369 59.232V59.2052V59.1784Z" fill="#343438"/>
<path d="M49.1386 23.2853C49.6475 23.1246 50.1565 22.9103 50.6386 22.6692C51.1208 22.4282 51.5761 22.1335 52.0047 21.8121L54.4154 23.5532C54.7368 23.7942 55.1386 23.8746 55.5136 23.821H55.5404C55.9154 23.7674 56.2368 23.5532 56.4779 23.2317L58.2725 20.7407C58.5136 20.4192 58.594 20.0174 58.5404 19.6424V19.6157C58.4868 19.2407 58.2725 18.9192 57.9511 18.6782L55.5672 16.9371C55.7011 16.5353 55.8083 16.1067 55.8886 15.6782V15.6514C55.969 15.196 56.0225 14.7407 56.0493 14.2853L58.9154 13.5085C59.3172 13.4014 59.6118 13.1335 59.7993 12.8121C59.9868 12.4907 60.0672 12.0889 59.96 11.6871L59.1565 8.71387C59.0493 8.31208 58.8083 8.01744 58.46 7.82994C58.1386 7.64244 57.7368 7.56208 57.335 7.66923L54.469 8.44601C54.2279 8.07101 53.96 7.69601 53.6654 7.3478C53.3708 6.99958 53.0493 6.67815 52.7011 6.38351L53.9065 3.67815C54.0672 3.24958 54.1208 2.90137 53.96 2.4728C53.8529 2.20494 53.5583 1.88351 53.1565 1.7228L50.344 0.463869C49.969 0.303154 49.5672 0.303154 49.219 0.437082L49.1654 0.463869C48.844 0.597797 48.5493 0.865654 48.3886 1.21387L47.1833 3.91923L46.9154 3.89244C46.6475 3.86565 46.3529 3.86565 46.085 3.86565C45.71 3.86565 45.3618 3.89244 44.9868 3.91923C44.8261 3.94601 44.6386 3.9728 44.4779 3.99958L43.1386 1.37458V1.3478C42.9511 0.999582 42.6297 0.758512 42.2815 0.624582C41.9333 0.517441 41.5315 0.517441 41.1565 0.704941L38.4243 2.0978L38.3708 2.12458C38.0493 2.31208 37.8083 2.60673 37.7011 2.95494C37.594 3.30315 37.594 3.70494 37.7815 4.07994L39.1208 6.73173C38.7993 7.05315 38.5047 7.40137 38.21 7.74958C37.9422 8.0978 37.6743 8.4728 37.46 8.87458L34.5672 8.25851C34.1654 8.17815 33.7636 8.25851 33.4422 8.4728C33.1208 8.68708 32.8797 9.00851 32.7993 9.4103L32.1565 12.4103C32.0761 12.8121 32.1565 13.1871 32.3708 13.5085C32.585 13.8299 32.9065 14.071 33.3083 14.1514H33.335L36.2011 14.7674C36.2547 15.2228 36.335 15.6782 36.4154 16.1067C36.5225 16.5621 36.6565 16.9907 36.8172 17.3924L34.5672 19.2139C34.5136 19.2407 34.4868 19.2674 34.46 19.321C34.1922 19.5621 34.0315 19.9103 33.9779 20.2585C33.9511 20.6067 34.0315 20.9817 34.2458 21.2764C34.2725 21.3032 34.2993 21.3567 34.3261 21.3835L36.2279 23.7139C36.4958 24.0353 36.844 24.2228 37.219 24.2496C37.594 24.2764 37.9958 24.196 38.2904 23.9282L38.3172 23.9014L40.594 22.0532C40.969 22.2942 41.3708 22.5353 41.7725 22.7228C42.1743 22.9103 42.6029 23.071 43.0315 23.2317V26.1782C43.0315 26.5799 43.1922 26.9549 43.46 27.2228C43.7279 27.4907 44.1029 27.6514 44.5047 27.6514H47.5583C47.96 27.6514 48.335 27.4907 48.6029 27.2228C48.8708 26.9549 49.0315 26.5799 49.0315 26.1782V23.2317L49.1386 23.2853ZM49.969 21.3567C49.4333 21.6246 48.8708 21.8389 48.2547 21.9996C47.9065 22.0532 47.6654 22.3746 47.6654 22.7228V26.2317H44.6118V22.7228C44.6118 22.4014 44.3975 22.0799 44.0493 21.9996C43.5136 21.8657 43.0047 21.6782 42.4958 21.4371C42.0136 21.196 41.5315 20.9282 41.0761 20.5799C40.8083 20.3924 40.4333 20.3924 40.1654 20.6067L37.4333 22.8032L35.5047 20.4192L38.21 18.2228C38.5047 18.0085 38.6118 17.6335 38.4511 17.3121C38.21 16.8032 38.0493 16.2942 37.9154 15.7585C37.7815 15.2496 37.7279 14.7139 37.7011 14.1514C37.7011 13.8032 37.46 13.4817 37.1118 13.4282L33.71 12.7049H33.6565V12.6514L34.2725 9.70494L37.7011 10.4282C38.0225 10.5085 38.3708 10.3478 38.5315 10.0264C38.7725 9.54423 39.0672 9.06208 39.4154 8.63351C39.7368 8.20494 40.1386 7.80315 40.5404 7.42815C40.7815 7.21387 40.8618 6.83887 40.7011 6.54423L39.1208 3.43708V3.4103L39.1475 3.38351L41.8261 2.01744H41.8529L41.8797 2.04423L43.46 5.15137C43.6208 5.44601 43.9422 5.60673 44.2904 5.52637C44.585 5.4728 44.9065 5.41923 45.2011 5.36565C45.4958 5.33887 45.8172 5.31208 46.1386 5.31208C46.3797 5.31208 46.6208 5.31208 46.8618 5.33887C47.1029 5.36565 47.344 5.39244 47.5583 5.41923C47.8797 5.4728 48.2279 5.31208 48.3618 4.99065L49.7815 1.77637L52.5404 3.00851L52.5672 3.0353L51.1475 6.24958C51.0136 6.54423 51.094 6.91923 51.3618 7.13351C51.7904 7.48173 52.1922 7.85673 52.5404 8.2853C52.8886 8.68708 53.21 9.14244 53.4779 9.62458C53.6386 9.91923 53.9868 10.0799 54.335 9.99958L57.7368 9.08887L58.5404 12.0353L55.1386 12.946C54.8172 13.0264 54.5761 13.321 54.5761 13.6692V13.7228V13.7764C54.5761 14.3121 54.5225 14.8478 54.4422 15.3567V15.3835C54.335 15.8924 54.2011 16.4014 54.0136 16.8567C53.8529 17.1782 53.96 17.5532 54.2547 17.7674L57.094 19.8299L55.2993 22.2942L52.46 20.2317C52.1922 20.0442 51.8172 20.0442 51.5493 20.2585C51.0672 20.6603 50.5583 21.0085 49.9958 21.2764L49.969 21.3567ZM46.1118 17.0442C46.969 17.0442 47.7725 16.696 48.335 16.1335L48.3886 16.0799C48.9243 15.5174 49.2725 14.7407 49.2725 13.9103C49.2725 13.0532 48.9243 12.2496 48.3618 11.6871C47.7993 11.1246 46.9958 10.7764 46.1386 10.7764C45.2815 10.7764 44.4779 11.1246 43.9154 11.6871L43.8618 11.7407C43.3261 12.3032 42.9779 13.0799 42.9779 13.9103C42.9779 14.7674 43.3261 15.571 43.8886 16.1335C44.4511 16.696 45.2547 17.0442 46.1118 17.0442ZM47.2904 15.0621C46.9958 15.3567 46.5672 15.5442 46.1118 15.5442C45.6565 15.5442 45.2279 15.3567 44.9333 15.0621C44.6386 14.7674 44.4511 14.3389 44.4511 13.8835C44.4511 13.4282 44.6118 13.0264 44.9065 12.7317L44.9333 12.7049C45.2279 12.4103 45.6565 12.2228 46.1118 12.2228C46.5672 12.2228 46.9958 12.4103 47.2904 12.7049C47.585 12.9996 47.7725 13.4282 47.7725 13.8835C47.7725 14.3389 47.6118 14.7407 47.3172 15.0353L47.2904 15.0621Z" fill="#343438"/>
</g>
</g>
<defs>
<clipPath id="clip0_604_2509">
<rect width="60" height="60" fill="white" transform="matrix(1 0 0 -1 0 60.3564)"/>
</clipPath>
<clipPath id="clip1_604_2509">
<rect width="60" height="60" fill="white" transform="matrix(1 0 0 -1 0.000362396 60.3564)"/>
</clipPath>
</defs>
</svg>
